<svg xmlns="http://www.w3.org/2000/svg" viewBox="0 0 32 32" width="32" height="32">
  <!-- White Cardinal Bird -->
  <defs>
    <linearGradient id="cardinalGradient" x1="0%" y1="0%" x2="100%" y2="100%">
      <stop offset="0%" style="stop-color:#ffffff;stop-opacity:1" />
      <stop offset="50%" style="stop-color:#f8f9fa;stop-opacity:1" />
      <stop offset="100%" style="stop-color:#e9ecef;stop-opacity:1" />
    </linearGradient>
    <filter id="shadow" x="-20%" y="-20%" width="140%" height="140%">
      <feDropShadow dx="1" dy="1" stdDeviation="1" flood-color="#000000" flood-opacity="0.2"/>
    </filter>
  </defs>
  
  <!-- Background circle -->
  <circle cx="16" cy="16" r="15" fill="#1e40af" stroke="#1e3a8a" stroke-width="1"/>
  
  <!-- Cardinal body -->
  <ellipse cx="16" cy="18" rx="8" ry="6" fill="url(#cardinalGradient)" filter="url(#shadow)"/>
  
  <!-- Cardinal head -->
  <circle cx="16" cy="12" r="5" fill="url(#cardinalGradient)" filter="url(#shadow)"/>
  
  <!-- Cardinal beak -->
  <path d="M20 12 L22 11 L20 10 Z" fill="#f59e0b"/>
  
  <!-- Cardinal eye -->
  <circle cx="17.5" cy="11" r="1" fill="#1e40af"/>
  <circle cx="17.5" cy="11" r="0.3" fill="#ffffff"/>
  
  <!-- Cardinal wing -->
  <ellipse cx="19" cy="17" rx="3" ry="4" fill="url(#cardinalGradient)" opacity="0.8"/>
  
  <!-- Cardinal tail -->
  <path d="M8 18 L12 16 L12 20 Z" fill="url(#cardinalGradient)" opacity="0.9"/>
  
  <!-- Cardinal feet -->
  <path d="M14 24 L14 26 M16 24 L16 26 M18 24 L18 26" stroke="#f59e0b" stroke-width="1" stroke-linecap="round"/>
  
  <!-- Cardinal crest -->
  <path d="M16 7 Q18 5 20 7 Q18 9 16 7" fill="url(#cardinalGradient)" opacity="0.9"/>
</svg>
